<svg width="42" height="31" viewBox="0 0 42 31" fill="none" xmlns="http://www.w3.org/2000/svg">
<path d="M41.3339 7.906C41.3339 4.0472 38.0093 0.00998797 38.0093 1.22085C38.0093 2.43171 38.6242 18.513 38.6242 18.513L38.0093 29.0291C38.0093 29.7463 38.5907 30.3276 39.3079 30.3276C40.0251 30.3276 40.6064 29.7463 40.6064 29.0291L40.263 18.4526C40.263 18.4526 41.3339 11.7648 41.3339 7.906Z" stroke="#FCC436" stroke-width="0.820339" stroke-miterlimit="10"/>
<mask id="path-2-inside-1_23_3634" fill="white">
<path d="M41.3339 7.906C41.3339 4.0472 38.0093 0.00998795 38.0093 1.22085C38.0093 2.43171 38.6242 18.513 38.6242 18.513L38.0093 29.0291C38.0093 29.7463 38.5907 30.3276 39.3079 30.3276C40.0251 30.3276 40.6064 29.7463 40.6064 29.0291L40.263 18.4526C40.263 18.4526 41.3339 11.7648 41.3339 7.906Z"/>
</mask>
<path d="M38.6242 18.513L42.7189 18.7524L42.7305 18.5544L42.7229 18.3562L38.6242 18.513ZM38.0093 29.0291L33.9146 28.7896L33.9076 28.9092V29.0291H38.0093ZM40.6064 29.0291H44.7081V28.9625L44.706 28.896L40.6064 29.0291ZM40.263 18.4526L36.2129 17.8041L36.1507 18.1925L36.1635 18.5857L40.263 18.4526ZM45.4356 7.906C45.4356 4.92995 44.2102 2.19828 43.1574 0.500635C42.6398 -0.334137 41.9673 -1.23966 41.2058 -1.89566C40.9998 -2.07311 40.6994 -2.30925 40.3179 -2.52258C40.0017 -2.69937 39.2571 -3.07568 38.2444 -3.09847C36.9605 -3.12737 35.538 -2.55831 34.649 -1.24393C33.9564 -0.219834 33.9076 0.803278 33.9076 1.22085H42.111C42.111 1.48706 42.0881 2.39981 41.4442 3.3519C40.6039 4.59428 39.2528 5.12969 38.0598 5.10283C37.1381 5.08209 36.5039 4.74352 36.3143 4.63754C36.0594 4.495 35.9018 4.36272 35.8517 4.31951C35.7135 4.20053 35.8723 4.31845 36.1857 4.82397C36.7953 5.80692 37.2322 7.02325 37.2322 7.906H45.4356ZM33.9076 1.22085C33.9076 1.92609 34.0668 6.37474 34.2178 10.472C34.2948 12.5596 34.3717 14.6089 34.4294 16.1362C34.4582 16.8998 34.4822 17.5331 34.4991 17.9755C34.5075 18.1967 34.5141 18.3702 34.5186 18.4884C34.5209 18.5475 34.5226 18.5928 34.5238 18.6234C34.5243 18.6386 34.5248 18.6502 34.5251 18.658C34.5252 18.6618 34.5253 18.6648 34.5254 18.6667C34.5254 18.6677 34.5255 18.6685 34.5255 18.669C34.5255 18.6692 34.5255 18.6694 34.5255 18.6695C34.5255 18.6696 34.5255 18.6697 38.6242 18.513C42.7229 18.3562 42.7229 18.3562 42.7229 18.3561C42.7229 18.356 42.7229 18.3558 42.7229 18.3555C42.7229 18.3551 42.7228 18.3543 42.7228 18.3534C42.7227 18.3514 42.7226 18.3485 42.7225 18.3447C42.7222 18.337 42.7217 18.3255 42.7212 18.3103C42.72 18.2799 42.7183 18.2347 42.716 18.1757C42.7115 18.0578 42.7049 17.8846 42.6965 17.6637C42.6797 17.222 42.6557 16.5894 42.6269 15.8266C42.5693 14.3008 42.4925 12.2541 42.4157 10.1699C42.3388 8.08513 42.2621 5.96548 42.2046 4.29273C42.1759 3.45586 42.1521 2.7348 42.1355 2.18744C42.1272 1.91341 42.1209 1.68742 42.1167 1.51438C42.1145 1.42783 42.113 1.35821 42.1121 1.30462C42.1116 1.27798 42.1113 1.25729 42.1112 1.24187C42.111 1.22572 42.111 1.21953 42.111 1.22085H33.9076ZM34.5295 18.2735L33.9146 28.7896L42.104 29.2685L42.7189 18.7524L34.5295 18.2735ZM33.9076 29.0291C33.9076 32.0116 36.3253 34.4293 39.3079 34.4293V26.226C40.856 26.226 42.111 27.481 42.111 29.0291H33.9076ZM39.3079 34.4293C42.2904 34.4293 44.7081 32.0116 44.7081 29.0291H36.5047C36.5047 27.481 37.7598 26.226 39.3079 26.226V34.4293ZM44.706 28.896L44.3626 18.3195L36.1635 18.5857L36.5069 29.1622L44.706 28.896ZM40.263 18.4526C44.3131 19.1011 44.3132 19.1009 44.3132 19.1007C44.3132 19.1006 44.3133 19.1003 44.3133 19.1001C44.3134 19.0996 44.3134 19.0991 44.3135 19.0985C44.3138 19.0972 44.314 19.0955 44.3144 19.0934C44.315 19.0892 44.316 19.0834 44.3171 19.076C44.3195 19.0612 44.3228 19.0402 44.327 19.0131C44.3355 18.959 44.3477 18.8809 44.3631 18.7811C44.3938 18.5816 44.4371 18.2951 44.489 17.9402C44.5925 17.2315 44.7305 16.2451 44.8688 15.1322C45.1382 12.9644 45.4356 10.1098 45.4356 7.906H37.2322C37.2322 9.56095 36.9941 11.9797 36.7281 14.1205C36.5987 15.1619 36.469 16.0886 36.3717 16.7545C36.3232 17.0869 36.2829 17.3529 36.255 17.5342C36.2411 17.6249 36.2302 17.6942 36.2231 17.74C36.2195 17.7628 36.2168 17.7798 36.2151 17.7906C36.2142 17.796 36.2136 17.7998 36.2132 17.8021C36.2131 17.8032 36.2129 17.804 36.2129 17.8043C36.2129 17.8045 36.2129 17.8045 36.2129 17.8045C36.2129 17.8045 36.2129 17.8044 36.2129 17.8044C36.2129 17.8042 36.2129 17.8041 40.263 18.4526Z" fill="#FCC436" mask="url(#path-2-inside-1_23_3634)"/>
<path d="M5.81844 1.70123C5.81844 1.70123 5.89084 4.40098 5.89084 6.96424C5.89084 8.88672 5.30693 10.094 4.4748 10.5775L4.49331 29.0291C4.49331 29.7463 3.91193 30.3277 3.19473 30.3277C2.47752 30.3277 1.89615 29.7463 1.89615 29.0291L2.42259 10.5814C1.58696 10.1004 1 8.89172 1 6.96424C1 4.40098 1.0724 1.70123 1.0724 1.70123" stroke="#FCC436" stroke-width="1.29858" stroke-miterlimit="10" stroke-linecap="round" stroke-linejoin="round"/>
<path d="M3.44531 1.70123V7.92461" stroke="#FCC436" stroke-width="1.29858" stroke-miterlimit="10" stroke-linecap="round" stroke-linejoin="round"/>
<path d="M21.7771 28.5602C28.934 28.5602 34.7358 22.7584 34.7358 15.6015C34.7358 8.44463 28.934 2.64282 21.7771 2.64282C14.6202 2.64282 8.81836 8.44463 8.81836 15.6015C8.81836 22.7584 14.6202 28.5602 21.7771 28.5602Z" stroke="#FCC436" stroke-width="2.46102" stroke-miterlimit="10" stroke-linecap="round" stroke-linejoin="round"/>
<path d="M21.7799 23.5171C26.1366 23.5171 29.6684 19.9853 29.6684 15.6286C29.6684 11.2719 26.1366 7.74005 21.7799 7.74005C17.4232 7.74005 13.8914 11.2719 13.8914 15.6286C13.8914 19.9853 17.4232 23.5171 21.7799 23.5171Z" fill="#FCC436"/>
</svg>
